<svg width="24" height="24" viewBox="0 0 24 24" fill="none" xmlns="http://www.w3.org/2000/svg">
<path d="M20.9336 22H2.26695C2.13661 22 2.01826 21.924 1.96398 21.8057C1.90961 21.6873 1.92935 21.548 2.01468 21.449L10.16 12L2.01426 2.55099C1.92926 2.45204 1.90927 2.31268 1.96364 2.19433C2.018 2.07598 2.13661 2 2.26695 2H20.9336C21.1177 2 21.267 2.14898 21.267 2.33335V7.33337C21.267 7.51775 21.1177 7.66672 20.9336 7.66672H18.6003C18.4162 7.66672 18.2669 7.51775 18.2669 7.33337V5H8.97032L14.525 11.789C14.6253 11.9117 14.6253 12.088 14.525 12.211L8.97032 19.0001H18.267V16.6667C18.267 16.4823 18.4163 16.3334 18.6003 16.3334H20.9337C21.1177 16.3334 21.2671 16.4823 21.2671 16.6667V21.6667C21.267 21.851 21.118 22 20.9336 22Z" fill="#645E9D"/>
</svg>
