<svg width="28" height="28" viewBox="0 0 28 28" fill="none" xmlns="http://www.w3.org/2000/svg">
<path d="M6.5939 2.33301C4.23376 2.33301 2.33337 4.23339 2.33337 6.59353V21.4058C2.33337 23.766 4.23376 25.6664 6.5939 25.6664H14.622V16.5445H12.21V13.2603H14.622V10.4545C14.622 8.25006 16.0472 6.22603 19.3303 6.22603C20.6595 6.22603 21.6425 6.35364 21.6425 6.35364L21.5652 9.42053C21.5652 9.42053 20.5627 9.41106 19.4688 9.41106C18.2849 9.41106 18.095 9.95654 18.095 10.8621V13.2603H21.6592L21.5039 16.5445H18.095V25.6664H21.4062C23.7663 25.6664 25.6667 23.766 25.6667 21.4059V6.59356C25.6667 4.23341 23.7663 2.33303 21.4062 2.33303H6.59388L6.5939 2.33301Z" fill="#5C5C5C"/>
</svg>
