<svg width="36" height="36" viewBox="0 0 36 36" fill="none" xmlns="http://www.w3.org/2000/svg">
<path d="M8.47782 3C5.44335 3 3 5.44335 3 8.47782V27.5222C3 30.5567 5.44335 33 8.47782 33H18.7997V21.2719H15.6985V17.0494H18.7997V13.4419C18.7997 10.6076 20.6321 8.00532 24.8531 8.00532C26.5622 8.00532 27.826 8.16939 27.826 8.16939L27.7266 12.1125C27.7266 12.1125 26.4377 12.1004 25.0312 12.1004C23.5091 12.1004 23.265 12.8017 23.265 13.966V17.0494H27.8475L27.6478 21.2719H23.265V33.0001H27.5222C30.5567 33.0001 33 30.5567 33 27.5222V8.47785C33 5.44338 30.5567 3.00003 27.5222 3.00003H8.47779L8.47782 3Z" fill="#5C5C5C"/>
</svg>
