<svg width="36" height="36" viewBox="0 0 36 36" fill="none" xmlns="http://www.w3.org/2000/svg">
<path d="M32.9034 11.8546C32.8866 10.595 32.6504 9.34789 32.2054 8.16909C31.8194 7.17477 31.23 6.27176 30.4747 5.51774C29.7195 4.76372 28.8149 4.17527 27.819 3.79C26.6534 3.35318 25.422 3.11699 24.1773 3.09147C22.5746 3.01996 22.0665 3 17.9983 3C13.9301 3 13.4087 3 11.8177 3.09147C10.5736 3.11718 9.34276 3.35337 8.1777 3.79C7.18157 4.175 6.27691 4.76335 5.5216 5.51741C4.76629 6.27146 4.17696 7.17462 3.79131 8.16909C3.35289 9.33185 3.11682 10.5609 3.09329 11.8031C3.02166 13.4047 3 13.912 3 17.9734C3 22.0348 3 22.5537 3.09329 24.1437C3.11828 25.3877 3.35318 26.6151 3.79131 27.781C4.17761 28.7752 4.76737 29.678 5.52294 30.4317C6.2785 31.1854 7.18325 31.7736 8.17937 32.1584C9.34124 32.6128 10.5723 32.8659 11.8194 32.9069C13.4237 32.9784 13.9318 33 18 33C22.0682 33 22.5896 33 24.1806 32.9069C25.4253 32.8824 26.6568 32.6467 27.8223 32.21C28.818 31.8243 29.7223 31.2357 30.4775 30.4817C31.2327 29.7278 31.8223 28.825 32.2087 27.8309C32.6468 26.6667 32.8817 25.4393 32.9067 24.1936C32.9783 22.5936 33 22.0864 33 18.0233C32.9967 13.9619 32.9967 13.4463 32.9034 11.8546ZM17.9883 25.6538C13.7336 25.6538 10.2868 22.2128 10.2868 17.9651C10.2868 13.7174 13.7336 10.2763 17.9883 10.2763C20.0309 10.2763 21.9899 11.0864 23.4342 12.5283C24.8785 13.9702 25.6899 15.9259 25.6899 17.9651C25.6899 20.0043 24.8785 21.9599 23.4342 23.4019C21.9899 24.8438 20.0309 25.6538 17.9883 25.6538ZM25.9964 11.7848C25.0019 11.7848 24.2006 10.9831 24.2006 9.99191C24.2006 9.75657 24.247 9.52354 24.3372 9.30612C24.4274 9.0887 24.5597 8.89114 24.7263 8.72474C24.893 8.55833 25.0909 8.42633 25.3087 8.33627C25.5265 8.24621 25.7599 8.19986 25.9956 8.19986C26.2313 8.19986 26.4648 8.24621 26.6825 8.33627C26.9003 8.42633 27.0982 8.55833 27.2649 8.72474C27.4316 8.89114 27.5638 9.0887 27.654 9.30612C27.7442 9.52354 27.7907 9.75657 27.7907 9.99191C27.7907 10.9831 26.9877 11.7848 25.9964 11.7848Z" fill="#5C5C5C"/>
<path d="M17.9878 22.9596C20.7507 22.9596 22.9905 20.7235 22.9905 17.9652C22.9905 15.2068 20.7507 12.9707 17.9878 12.9707C15.2248 12.9707 12.985 15.2068 12.985 17.9652C12.985 20.7235 15.2248 22.9596 17.9878 22.9596Z" fill="#5C5C5C"/>
</svg>
