<svg width="28" height="28" viewBox="0 0 28 28" fill="none" xmlns="http://www.w3.org/2000/svg">
<path d="M25.5916 9.21995C25.5785 8.24023 25.3948 7.27026 25.0486 6.35341C24.7485 5.58005 24.2901 4.87771 23.7026 4.29125C23.1152 3.70479 22.4117 3.24711 21.637 2.94745C20.7304 2.60771 19.7727 2.424 18.8046 2.40415C17.5581 2.34853 17.1629 2.33301 13.9987 2.33301C10.8346 2.33301 10.429 2.33301 9.19162 2.40415C8.22393 2.42414 7.26663 2.60785 6.36047 2.94745C5.58571 3.2469 4.88208 3.7045 4.29462 4.29099C3.70715 4.87748 3.24879 5.57993 2.94884 6.35341C2.60785 7.25778 2.42423 8.2137 2.40593 9.17985C2.35022 10.4256 2.33337 10.8201 2.33337 13.979C2.33337 17.1379 2.33337 17.5415 2.40593 18.7781C2.42537 19.7457 2.60807 20.7003 2.94884 21.6071C3.24929 22.3804 3.708 23.0826 4.29566 23.6688C4.88332 24.255 5.58701 24.7124 6.36177 25.0118C7.26545 25.3652 8.22291 25.5621 9.19292 25.5939C10.4407 25.6495 10.8359 25.6663 14 25.6663C17.1642 25.6663 17.5698 25.6663 18.8072 25.5939C19.7753 25.5749 20.7331 25.3916 21.6396 25.0519C22.4141 24.7519 23.1174 24.2941 23.7048 23.7077C24.2922 23.1213 24.7507 22.4191 25.0512 21.6459C25.392 20.7404 25.5747 19.7858 25.5941 18.8169C25.6499 17.5725 25.6667 17.178 25.6667 14.0178C25.6641 10.8589 25.6641 10.4579 25.5916 9.21995ZM13.991 19.9527C10.6817 19.9527 8.00085 17.2763 8.00085 13.9725C8.00085 10.6687 10.6817 7.99236 13.991 7.99236C15.5796 7.99236 17.1033 8.62241 18.2266 9.7439C19.35 10.8654 19.9811 12.3865 19.9811 13.9725C19.9811 15.5585 19.35 17.0796 18.2266 18.2011C17.1033 19.3226 15.5796 19.9527 13.991 19.9527ZM20.2195 9.16562C19.446 9.16562 18.8227 8.54212 18.8227 7.77116C18.8227 7.58812 18.8588 7.40687 18.929 7.23777C18.9991 7.06866 19.102 6.91501 19.2316 6.78558C19.3613 6.65615 19.5152 6.55348 19.6846 6.48344C19.854 6.41339 20.0355 6.37734 20.2189 6.37734C20.4022 6.37734 20.5837 6.41339 20.7531 6.48344C20.9225 6.55348 21.0764 6.65615 21.2061 6.78558C21.3357 6.91501 21.4386 7.06866 21.5087 7.23777C21.5789 7.40687 21.615 7.58812 21.615 7.77116C21.615 8.54212 20.9905 9.16562 20.2195 9.16562Z" fill="#5C5C5C"/>
<path d="M13.9905 17.857C16.1395 17.857 17.8816 16.1179 17.8816 13.9725C17.8816 11.8271 16.1395 10.0879 13.9905 10.0879C11.8416 10.0879 10.0995 11.8271 10.0995 13.9725C10.0995 16.1179 11.8416 17.857 13.9905 17.857Z" fill="#5C5C5C"/>
</svg>
