<svg width="28" height="28" viewBox="0 0 28 28" fill="none" xmlns="http://www.w3.org/2000/svg">
<path d="M17.5812 2.33301H10.4189C3.88281 2.33301 2.33337 3.88244 2.33337 10.4185V17.5809C2.33337 24.1169 3.88281 25.6663 10.4189 25.6663H17.5812C24.1173 25.6663 25.6667 24.1169 25.6667 17.5809V10.4185C25.6667 3.88244 24.102 2.33301 17.5812 2.33301ZM21.1701 18.9779H19.4763C18.8346 18.9779 18.637 18.469 17.4828 17.2994C16.4802 16.3275 16.0362 16.1984 15.789 16.1984C15.4397 16.1984 15.3406 16.2968 15.3406 16.7759V18.3064C15.3406 18.7169 15.2115 18.9633 14.1251 18.9633C12.3285 18.9633 10.335 17.8769 8.93723 15.8528C6.82928 12.8866 6.25252 10.6649 6.25252 10.2056C6.25252 9.9584 6.35096 9.72726 6.82563 9.72726H8.52308C8.95254 9.72726 9.11587 9.92485 9.28285 10.3842C10.1221 12.8072 11.5199 14.9297 12.0966 14.9297C12.3095 14.9297 12.408 14.8313 12.408 14.2881V11.7856C12.3431 10.6314 11.7357 10.5322 11.7357 10.1225C11.7357 9.92485 11.899 9.72726 12.1608 9.72726H14.8302C15.1911 9.72726 15.3238 9.92485 15.3238 10.3499V13.7259C15.3238 14.0905 15.4871 14.2195 15.5856 14.2195C15.7985 14.2195 15.9808 14.0905 16.3752 13.6953C17.5944 12.3281 18.4679 10.2202 18.4679 10.2202C18.5816 9.97298 18.7792 9.74184 19.2087 9.74184H20.9061C21.4151 9.74184 21.5288 10.0036 21.4151 10.3682C21.2022 11.3554 19.1248 14.2873 19.1248 14.2873C18.9462 14.5834 18.8776 14.7124 19.1248 15.0427C19.3071 15.2899 19.8999 15.8025 20.2944 16.2618C21.0199 17.0858 21.5777 17.777 21.7264 18.2553C21.8934 18.73 21.6469 18.9772 21.1679 18.9772L21.1701 18.9779Z" fill="#5C5C5C"/>
</svg>
