<svg width="120" height="120" viewBox="0 0 120 120" fill="none" xmlns="http://www.w3.org/2000/svg">
<circle cx="60" cy="60" r="38.5" stroke="#F1F1F1" stroke-width="13"/>
<circle cx="60" cy="60" r="43.5" stroke="#5C5C5C" stroke-width="3"/>
<path d="M69 17L55.5 24.7942L55.5 9.20577L69 17Z" fill="#5C5C5C"/>
<path d="M51 103L64.5 95.2058L64.5 110.794L51 103Z" fill="#5C5C5C"/>
<path d="M65.3895 58.4952C66.8327 57.7597 67.7348 56.4639 67.5231 54.3066C67.2385 51.3577 64.6921 50.3703 61.4777 50.0902L61.4761 46.5257C61.4769 46.5143 61.4828 46.5045 61.4828 46.4927C61.4828 46.2208 61.2624 46.0008 60.9904 46.0004H59.4897C59.3593 46.0005 59.2343 46.0524 59.1421 46.1446C59.0499 46.2368 58.9981 46.3619 58.9981 46.4923H58.9867L58.9887 49.9835C58.3338 49.9835 57.6647 49.9965 57.0003 50.0103L56.9991 46.5356C57.0003 46.5206 57.0078 46.5076 57.0078 46.4923C57.0078 46.2204 56.7874 46.0004 56.5154 46H55.0147C54.8843 46.0001 54.7593 46.052 54.6671 46.1442C54.5749 46.2364 54.5231 46.3615 54.5231 46.4919L54.5235 46.4931H54.5113L54.5121 50.0909C53.9729 50.102 53.4435 50.1134 52.9271 50.1134L52.9268 50.1004H49.4924V50.1055C49.4277 50.1055 49.3636 50.1182 49.3039 50.1429C49.2441 50.1676 49.1898 50.2039 49.1441 50.2496C49.0984 50.2953 49.0621 50.3496 49.0374 50.4093C49.0126 50.4691 48.9999 50.5331 49 50.5978V52.2608C49 52.5327 49.2204 52.753 49.4924 52.753L49.4943 52.7527V52.7601C49.4943 52.7601 51.3331 52.7243 51.3024 52.757C52.3108 52.7574 52.6394 53.3425 52.7351 53.8474L52.737 58.5078L52.7374 58.5255L52.7394 65.0526C52.6953 65.3698 52.5088 65.8763 51.8043 65.8774C51.8361 65.9054 49.9942 65.8771 49.9942 65.8771L49.9938 65.8794C49.9906 65.8794 49.9883 65.8774 49.9851 65.8774C49.7486 65.8774 49.5605 66.0474 49.5128 66.2698L49.4928 66.2686L49.0394 68.3027L49.05 68.3046C49.048 68.3227 49.0394 68.3385 49.0394 68.3574C49.0394 68.6186 49.2448 68.8276 49.5022 68.8437L49.501 68.8512L52.7414 68.85C53.3443 68.85 53.9379 68.8599 54.5204 68.8634L54.5231 72.5081H54.5243C54.5243 72.7796 54.7447 73 55.0167 73H56.5174C56.6478 72.9998 56.7729 72.9478 56.865 72.8555C56.9572 72.7632 57.009 72.6381 57.009 72.5077H57.0098L57.0082 68.9075C57.691 68.9213 58.3519 68.9264 58.9973 68.9248L58.9981 72.5081H58.9993C58.9997 72.7796 59.2197 73 59.4913 73H60.992C61.1225 72.9998 61.2475 72.9478 61.3397 72.8555C61.4318 72.7632 61.4836 72.6381 61.4836 72.5077V72.5073H61.4867L61.486 68.8685C65.6717 68.6265 68.6015 67.5711 68.9636 63.6403C69.2556 60.4761 67.7659 59.0642 65.3895 58.4952ZM57.0594 52.9368C58.4648 52.936 62.88 52.4874 62.8816 55.4207C62.882 58.2335 58.4664 57.9069 57.0609 57.9077L57.0594 52.9368ZM57.0637 65.8971L57.0625 60.4159C58.7502 60.4159 64.0419 59.9287 64.043 63.1528C64.0454 66.2442 58.7514 65.8944 57.0637 65.8971Z" fill="#66B700"/>
</svg>
