<svg width="851" height="452" viewBox="0 0 851 452" fill="none" xmlns="http://www.w3.org/2000/svg">
<g clip-path="url(#clip0)">
<path fill-rule="evenodd" clip-rule="evenodd" d="M564.045 19.3129C615.958 27.2861 638.872 87.5331 679.852 120.384C717.949 150.923 778.659 158.735 795.252 204.655C811.884 250.686 781.459 299.381 760.514 343.616C742.06 382.589 715.083 414.571 682.487 442.801C646.823 473.69 610.557 505.858 564.045 513.775C512.2 522.6 455.835 518.128 412.171 488.815C367.763 459.001 337.5 408.929 329.173 356.093C321.446 307.069 353.857 263.669 369.252 216.487C384.62 169.385 384.325 115.589 419.146 80.3429C456.903 42.1244 510.944 11.1573 564.045 19.3129Z" fill="#66B700" fill-opacity="0.1"/>
<path fill-rule="evenodd" clip-rule="evenodd" d="M585.436 402.364C562.702 458.183 496.622 477.195 451.772 517.458C411.118 553.953 387.717 611.683 335.261 626.948C280.526 642.876 214.59 635.671 170.746 599.237C128.822 564.398 143.049 497.383 119.937 448.015C98.4994 402.223 41.8136 373.241 41.2765 322.683C40.7236 270.633 81.5936 228.583 117.203 190.616C153.496 151.92 194.486 116.068 246.193 104.197C299.755 91.9016 353.304 107.972 405.753 124.376C468.138 143.887 542.358 153.026 577.84 207.922C613.934 263.763 610.516 340.785 585.436 402.364Z" fill="#66B700" fill-opacity="0.1"/>
<path fill-rule="evenodd" clip-rule="evenodd" d="M231.523 674.826C200.327 623.256 224.541 558.9 219.031 498.881C214.036 444.478 181.706 391.232 200.789 340.041C220.7 286.626 265.857 238.042 321.263 224.634C374.244 211.812 419.501 263.244 472.901 274.189C522.433 284.341 579.532 256.181 620.405 285.944C662.484 316.584 671.805 374.478 680.992 425.713C690.356 477.933 694.634 532.222 673.275 580.785C651.151 631.09 606.282 664.444 561.802 696.717C508.896 735.104 457.242 789.177 392.02 784.854C325.675 780.456 265.937 731.718 231.523 674.826Z" fill="#66B700" fill-opacity="0.1"/>
<path fill-rule="evenodd" clip-rule="evenodd" d="M696.567 822.91C626.145 848.641 554.238 794.81 483.923 768.786C425.728 747.249 366.876 728.518 322.988 684.651C277.652 639.336 234.76 583.421 234.344 519.323C233.941 457.226 298.887 417.584 320.876 359.509C349.266 284.529 316.042 179.974 380.753 132.641C443.892 86.4582 535.282 122.856 609.127 148.669C675.185 171.76 729.575 216.069 774.028 270.114C816.391 321.618 845.969 381.6 855.057 447.667C864.302 514.877 851.854 581.5 825.457 643.997C796.142 713.406 767.337 797.052 696.567 822.91Z" fill="#66B700" fill-opacity="0.1"/>
</g>
<defs>
<clipPath id="clip0">
<rect width="851" height="452" fill="white"/>
</clipPath>
</defs>
</svg>
