<svg width="44" height="44" viewBox="0 0 44 44" fill="none" xmlns="http://www.w3.org/2000/svg">
<path d="M9.20245 28.0182L9.2024 28.0181C7.68451 24.7305 7.12349 20.1109 6.96612 16.1926C6.88836 14.2564 6.9103 12.5344 6.95175 11.2969C6.96233 10.981 6.97418 10.6969 6.98592 10.4494C11.6009 10.2238 15.4122 8.70943 18.1178 7.20688C19.5859 6.39152 20.7373 5.57489 21.5263 4.95776C21.6422 4.86711 21.7504 4.78069 21.8507 4.69913C21.9276 4.76847 22.0095 4.84103 22.0962 4.91645C22.8141 5.54063 23.8705 6.36474 25.2453 7.18691C27.7825 8.70413 31.419 10.2226 36.0121 10.4492C36.0241 10.7045 36.0362 10.9987 36.0471 11.3266C36.0886 12.5826 36.1106 14.3293 36.033 16.2901C35.8758 20.259 35.3149 24.9251 33.799 28.2114C31.7438 32.659 27.5989 36.369 21.4989 38.6687C15.4215 36.3664 11.2635 32.4833 9.20245 28.0182Z" stroke="white" stroke-width="2.5"/>
<path d="M22.3596 16.9665V20.085L22.829 20.1034C24.3909 20.1888 25.4479 20.4623 25.9988 20.9211C26.5457 21.3813 26.8204 22.2227 26.8204 23.4454C26.8204 24.7627 26.5194 25.6869 25.9238 26.2181C25.3256 26.7479 24.2804 27.0122 22.7896 27.0122L22.3557 27.0201V28.4163H20.9371V27.0201L20.5375 27.0122C19.0532 27.0122 18.0106 26.7597 17.4045 26.2496C16.8037 25.7435 16.5 24.8587 16.5 23.5979L16.5092 23.1758H18.614V23.3915C18.614 24.1592 18.7376 24.6549 18.9835 24.8784C19.228 25.0993 19.7749 25.2123 20.6242 25.2123L20.9345 25.2202V21.8427C19.278 21.8427 18.146 21.6021 17.5399 21.1236C16.9339 20.645 16.6315 19.7458 16.6315 18.4298C16.6315 17.1532 16.9339 16.2802 17.5439 15.8095C18.1539 15.3402 19.2832 15.1035 20.9345 15.1035V13.8927H22.3544V15.1049C23.9334 15.1049 25.0114 15.331 25.5912 15.7806C26.171 16.2316 26.4589 17.069 26.4589 18.293V18.5796H24.4251L24.4145 18.3548C24.4145 17.4293 23.8387 16.9678 22.6844 16.9678H22.3557V16.9665H22.3596ZM20.9398 16.9586L20.6374 16.9678C19.3897 16.9678 18.7666 17.4621 18.7666 18.4495C18.7666 19.4828 19.3897 20.0008 20.6295 20.0008C20.6426 20.0008 20.7452 20.0061 20.9398 20.0179V16.9586ZM22.3596 25.2215H22.662C24.0136 25.2215 24.6893 24.6431 24.6893 23.4822C24.6893 22.8485 24.5421 22.4278 24.2384 22.2266C23.9373 22.0242 23.3115 21.9242 22.3557 21.9242V25.2242L22.3596 25.2215Z" fill="white"/>
</svg>
