<svg width="36" height="36" viewBox="0 0 36 36" fill="none" xmlns="http://www.w3.org/2000/svg">
  <path fill-rule="evenodd" clip-rule="evenodd" d="M18.2619 3.80537C18.0336 3.58547 17.9171 3.45453 17.9171 3.45453C17.9171 3.45453 17.748 3.62079 17.4237 3.89326C15.9528 5.12919 11.2905 8.55032 4.75087 8.55032C4.75087 8.55032 3.93887 18.5874 6.60064 24.3526C8.45735 28.375 12.2114 31.7844 17.5894 33.7283C22.9694 31.7864 26.7234 28.5334 28.5821 24.5111C31.2419 18.7459 30.4299 8.55032 30.4299 8.55032C23.7271 8.55032 19.4583 4.95729 18.2619 3.80537ZM17.8349 6.73532C17.2161 7.18021 16.447 7.68474 15.5408 8.188C13.4547 9.34653 10.5952 10.5236 7.14705 10.9148C7.12738 11.8221 7.12586 12.9513 7.17558 14.1892C7.30294 17.3603 7.75701 20.8932 8.87041 23.3047C10.3145 26.4331 13.2178 29.2675 17.5919 31.0515C22.0033 29.2701 24.8823 26.5577 26.3126 23.4624C27.4236 21.0535 27.878 17.4848 28.0053 14.2698C28.0557 12.9993 28.0534 11.8402 28.0329 10.913C24.6199 10.5182 21.8772 9.33216 19.897 8.14806C19.0831 7.66132 18.3942 7.17284 17.8349 6.73532Z" fill="#5C5C5C"/>
  <path d="M18.2943 14.8817V17.4332L18.6783 17.4482C19.9562 17.5181 20.821 17.7419 21.2717 18.1173C21.7192 18.4938 21.944 19.1822 21.944 20.1826C21.944 21.2604 21.6977 22.0166 21.2104 22.4512C20.721 22.8847 19.8658 23.1009 18.646 23.1009L18.291 23.1073V24.2497H17.1304V23.1073L16.8034 23.1009C15.589 23.1009 14.7359 22.8943 14.2401 22.477C13.7485 22.0628 13.5 21.3389 13.5 20.3074L13.5075 19.9621H15.2297V20.1385C15.2297 20.7667 15.3308 21.1722 15.5319 21.3551C15.732 21.5358 16.1795 21.6283 16.8744 21.6283L17.1282 21.6347V18.8713C15.7729 18.8713 14.8467 18.6745 14.3509 18.2829C13.855 17.8914 13.6076 17.1556 13.6076 16.0789C13.6076 15.0344 13.855 14.3202 14.3541 13.9351C14.8532 13.5511 15.7772 13.3575 17.1282 13.3575V12.3668H18.29V13.3585C19.5818 13.3585 20.4639 13.5435 20.9383 13.9114C21.4126 14.2804 21.6482 14.9656 21.6482 15.967V16.2015H19.9841L19.9755 16.0176C19.9755 15.2603 19.5044 14.8828 18.5599 14.8828H18.291V14.8817H18.2943ZM17.1325 14.8752L16.8851 14.8828C15.8643 14.8828 15.3545 15.2872 15.3545 16.095C15.3545 16.9405 15.8643 17.3643 16.8787 17.3643C16.8894 17.3643 16.9733 17.3686 17.1325 17.3783V14.8752ZM18.2943 21.6358H18.5417C19.6475 21.6358 20.2003 21.1625 20.2003 20.2127C20.2003 19.6942 20.0799 19.35 19.8314 19.1854C19.5851 19.0198 19.073 18.938 18.291 18.938V21.638L18.2943 21.6358Z" fill="#5C5C5C"/>
</svg>