<svg width="36" height="36" viewBox="0 0 36 36" fill="none" xmlns="http://www.w3.org/2000/svg">
<path d="M17.7524 4.23535C17.7928 4.20371 17.8322 4.17268 17.8704 4.14231C17.8898 4.15937 17.9095 4.17662 17.9296 4.19404C18.5253 4.71206 19.4004 5.39462 20.5386 6.07524C22.601 7.30854 25.5413 8.54299 29.2465 8.76504C29.2532 8.92106 29.2598 9.0914 29.2659 9.27474C29.2997 10.2983 29.3176 11.7217 29.2544 13.3193C29.126 16.5616 28.6678 20.341 27.4473 22.9867C25.8049 26.5412 22.4933 29.5277 17.5901 31.3948C12.7088 29.5255 9.38429 26.4005 7.73557 22.8288L7.73552 22.8287C6.51338 20.1816 6.05513 16.4399 5.92658 13.2394C5.86324 11.6621 5.88111 10.2589 5.91488 9.25055C5.92071 9.07649 5.92701 8.91437 5.93344 8.76532C9.65999 8.54447 12.7391 7.31414 14.9339 6.09521C16.1472 5.4214 17.0991 4.74632 17.7524 4.23535Z" stroke="#5C5C5C" stroke-width="2.5"/>
<path d="M18.2943 13.8817V16.4332L18.6783 16.4482C19.9562 16.5181 20.821 16.7419 21.2717 17.1173C21.7192 17.4938 21.944 18.1822 21.944 19.1826C21.944 20.2604 21.6977 21.0166 21.2104 21.4512C20.721 21.8847 19.8658 22.1009 18.646 22.1009L18.291 22.1073V23.2497H17.1304V22.1073L16.8034 22.1009C15.589 22.1009 14.7359 21.8943 14.2401 21.477C13.7485 21.0628 13.5 20.3389 13.5 19.3074L13.5075 18.9621H15.2297V19.1385C15.2297 19.7667 15.3308 20.1722 15.5319 20.3551C15.732 20.5358 16.1795 20.6283 16.8744 20.6283L17.1282 20.6347V17.8713C15.7729 17.8713 14.8467 17.6745 14.3509 17.2829C13.855 16.8914 13.6076 16.1556 13.6076 15.0789C13.6076 14.0344 13.855 13.3202 14.3541 12.9351C14.8532 12.5511 15.7772 12.3575 17.1282 12.3575V11.3668H18.29V12.3585C19.5818 12.3585 20.4639 12.5435 20.9383 12.9114C21.4126 13.2804 21.6482 13.9656 21.6482 14.967V15.2015H19.9841L19.9755 15.0176C19.9755 14.2603 19.5044 13.8828 18.5599 13.8828H18.291V13.8817H18.2943ZM17.1325 13.8752L16.8851 13.8828C15.8643 13.8828 15.3545 14.2872 15.3545 15.095C15.3545 15.9405 15.8643 16.3643 16.8787 16.3643C16.8894 16.3643 16.9733 16.3686 17.1325 16.3783V13.8752ZM18.2943 20.6358H18.5417C19.6475 20.6358 20.2003 20.1625 20.2003 19.2127C20.2003 18.6942 20.0799 18.35 19.8314 18.1854C19.5851 18.0198 19.073 17.938 18.291 17.938V20.638L18.2943 20.6358Z" fill="#5C5C5C"/>
</svg>
