<svg width="36" height="36" viewBox="0 0 36 36" fill="none" xmlns="http://www.w3.org/2000/svg">
<path d="M31.6565 18.1283C30.509 17.7399 29.292 18.1107 28.556 19.0731L25.1637 23.5092C25.1643 23.485 25.1655 23.461 25.1655 23.4367C25.1655 21.7626 23.8035 20.4005 22.1293 20.4005H16.1036C14.1824 18.7661 11.4672 18.4753 9.25573 19.62V19.4897C9.25573 18.9866 8.8479 18.5788 8.34486 18.5788H3.36546C2.86242 18.5788 2.45459 18.9866 2.45459 19.4897V31.6345C2.45459 32.1376 2.86242 32.5454 3.36546 32.5454H8.34486C8.8479 32.5454 9.25573 32.1376 9.25573 31.6345V30.7237H24.1857C26.3654 30.7237 28.3704 29.6291 29.5491 27.7955L33.1038 22.2659C33.3928 21.8165 33.5454 21.2965 33.5454 20.7621C33.5455 19.5507 32.804 18.5168 31.6565 18.1283ZM7.43399 30.7237H4.27632V20.4005H7.43399V30.7237ZM31.5714 21.2808L28.0167 26.8104C27.1748 28.1201 25.7427 28.9019 24.1857 28.9019H9.25573V21.7801L9.56038 21.5625C11.2692 20.3419 13.6081 20.5124 15.122 21.968C15.2916 22.1312 15.5179 22.2223 15.7532 22.2223H22.1293C22.799 22.2223 23.3438 22.7671 23.3438 23.4368C23.3438 24.1065 22.799 24.6513 22.1293 24.6513H15.7532H15.6318C15.1288 24.6513 14.7209 25.0591 14.7209 25.5622C14.7209 26.0652 15.1288 26.473 15.6318 26.473H15.7532H22.1293H22.94C24.3493 26.473 25.7017 25.8047 26.5577 24.6852L30.0031 20.1798C30.3908 19.6729 30.9194 19.8023 31.0723 19.854C31.2252 19.9058 31.7238 20.1242 31.7238 20.7623C31.7238 20.9465 31.6711 21.1258 31.5714 21.2808Z" fill="#5C5C5C"/>
<path fill-rule="evenodd" clip-rule="evenodd" d="M20.4898 3.2045C17.2709 3.2045 14.6493 5.82613 14.6493 9.04506C14.6493 12.264 17.2709 14.8856 20.4898 14.8856C23.7088 14.8856 26.3304 12.264 26.3304 9.04506C26.3304 5.82612 23.7088 3.2045 20.4898 3.2045ZM20.4898 1.3045C16.2215 1.3045 12.7493 4.77678 12.7493 9.04506C12.7493 13.3133 16.2215 16.7856 20.4898 16.7856C24.7581 16.7856 28.2304 13.3133 28.2304 9.04506C28.2304 4.77678 24.7581 1.3045 20.4898 1.3045Z" fill="#5C5C5C"/>
<path fill-rule="evenodd" clip-rule="evenodd" d="M21.0953 7.18548V7.96608V7.96661C22.5294 8.03322 23.6077 8.31996 23.6077 8.66291C23.6077 9.00585 22.5294 9.29259 21.0953 9.35921V11.8571H19.8171V9.36181C18.3809 9.29468 17.3 9.00793 17.3 8.66447C17.3 8.321 18.3804 8.03426 19.8171 7.96765V7.18704H18.0494V6H22.863V7.18548H21.0953ZM21.0462 9.15025C21.071 9.14916 21.087 9.14845 21.0953 9.14845V9.14741C22.3621 9.09069 23.3077 8.86743 23.3077 8.60203C23.3077 8.33662 22.3621 8.11337 21.0953 8.05665V8.92624C21.0586 8.92936 20.8603 8.94602 20.4662 8.94602C20.1378 8.94602 19.9002 8.93196 19.8171 8.92624V8.05665C18.5477 8.11337 17.6001 8.3361 17.6001 8.60255C17.6001 8.869 18.5477 9.09173 19.8171 9.14845C20.0316 9.15807 20.2463 9.16258 20.4611 9.16198C20.7795 9.16198 20.9626 9.15393 21.0462 9.15025Z" fill="#5C5C5C"/>
</svg>
