<svg width="36" height="36" viewBox="0 0 36 36" fill="none" xmlns="http://www.w3.org/2000/svg">
<path d="M31.6565 19.1284C30.509 18.74 29.292 19.1108 28.556 20.0731L25.1637 24.5092C25.1643 24.4851 25.1655 24.4611 25.1655 24.4368C25.1655 22.7626 23.8035 21.4006 22.1293 21.4006H16.1036C14.1824 19.7662 11.4672 19.4753 9.25573 20.6201V20.4897C9.25573 19.9867 8.8479 19.5789 8.34486 19.5789H3.36546C2.86242 19.5789 2.45459 19.9867 2.45459 20.4897V32.6346C2.45459 33.1376 2.86242 33.5455 3.36546 33.5455H8.34486C8.8479 33.5455 9.25573 33.1376 9.25573 32.6346V31.7237H24.1857C26.3654 31.7237 28.3704 30.6291 29.5491 28.7955L33.1038 23.266C33.3928 22.8166 33.5454 22.2966 33.5454 21.7622C33.5455 20.5507 32.804 19.5169 31.6565 19.1284ZM7.43399 31.7237H4.27632V21.4006H7.43399V31.7237ZM31.5714 22.2808L28.0167 27.8105C27.1748 29.1201 25.7427 29.902 24.1857 29.902H9.25573V22.7802L9.56038 22.5626C11.2692 21.342 13.6081 21.5125 15.122 22.9681C15.2916 23.1312 15.5179 23.2224 15.7532 23.2224H22.1293C22.799 23.2224 23.3438 23.7672 23.3438 24.4369C23.3438 25.1065 22.799 25.6514 22.1293 25.6514H15.7532H15.6318C15.1288 25.6514 14.7209 26.0592 14.7209 26.5622C14.7209 27.0653 15.1288 27.4731 15.6318 27.4731H15.7532H22.1293H22.94C24.3493 27.4731 25.7017 26.8048 26.5577 25.6853L30.0031 21.1799C30.3908 20.6729 30.9194 20.8023 31.0723 20.8541C31.2252 20.9059 31.7238 21.1242 31.7238 21.7624C31.7238 21.9466 31.6711 22.1258 31.5714 22.2808Z" fill="#5C5C5C" stroke="#5C5C5C" stroke-width="0.3"/>
<path d="M20.4897 17.6356C24.6752 17.6356 28.0803 14.2305 28.0803 10.0451C28.0803 5.85965 24.6752 2.45453 20.4897 2.45453C16.3043 2.45453 12.8992 5.85965 12.8992 10.0451C12.8992 14.2305 16.3043 17.6356 20.4897 17.6356ZM20.4897 4.27626C23.6707 4.27626 26.2585 6.86415 26.2585 10.0451C26.2585 13.226 23.6707 15.8139 20.4897 15.8139C17.3088 15.8139 14.7209 13.226 14.7209 10.0451C14.7209 6.86415 17.3088 4.27626 20.4897 4.27626Z" fill="#5C5C5C" stroke="#5C5C5C" stroke-width="0.3"/>
<path d="M22.0229 9.5746C22.3771 9.39631 22.5985 9.08217 22.5466 8.5592C22.4767 7.8443 21.8517 7.60495 21.0627 7.53702L21.0623 6.67292C21.0625 6.67015 21.064 6.66777 21.064 6.66491C21.064 6.59899 21.0099 6.54566 20.9431 6.54557H20.5747C20.5427 6.54559 20.512 6.55817 20.4894 6.58053C20.4668 6.60289 20.4541 6.6332 20.4541 6.66481H20.4513L20.4518 7.51117C20.291 7.51117 20.1268 7.51432 19.9637 7.51766L19.9634 6.67531C19.9637 6.67168 19.9655 6.66853 19.9655 6.66481C19.9655 6.59889 19.9114 6.54557 19.8447 6.54547H19.4763C19.4443 6.5455 19.4136 6.55807 19.391 6.58043C19.3684 6.60279 19.3557 6.63311 19.3557 6.66472L19.3558 6.665H19.3528L19.353 7.53722C19.2206 7.53989 19.0907 7.54265 18.9639 7.54265L18.9638 7.5395H18.1209V7.54075C18.105 7.54073 18.0893 7.54381 18.0746 7.5498C18.0599 7.5558 18.0466 7.56459 18.0354 7.57567C18.0241 7.58676 18.0152 7.59992 18.0092 7.6144C18.0031 7.62889 18 7.64441 18 7.66009V8.06323C18 8.12915 18.0541 8.18257 18.1209 8.18257L18.1213 8.18248V8.18429C18.1213 8.18429 18.5727 8.17561 18.5651 8.18353C18.8127 8.18362 18.8933 8.32548 18.9168 8.44787L18.9173 9.57766L18.9174 9.58195L18.9179 11.1643C18.907 11.2412 18.8612 11.364 18.6883 11.3642C18.6961 11.371 18.244 11.3642 18.244 11.3642L18.2439 11.3647C18.2432 11.3647 18.2426 11.3642 18.2418 11.3642C18.1837 11.3642 18.1376 11.4055 18.1259 11.4594L18.121 11.4591L18.0097 11.9522L18.0123 11.9527C18.0118 11.957 18.0097 11.9609 18.0097 11.9654C18.0097 12.0288 18.0601 12.0794 18.1233 12.0833L18.123 12.0852L18.9183 12.0849C19.0663 12.0849 19.212 12.0873 19.355 12.0881L19.3557 12.9717H19.356C19.356 13.0375 19.4101 13.0909 19.4768 13.0909H19.8452C19.8772 13.0909 19.9079 13.0783 19.9305 13.0559C19.9531 13.0335 19.9658 13.0032 19.9658 12.9716H19.966L19.9656 12.0988C20.1333 12.1021 20.2955 12.1034 20.4539 12.103L20.4541 12.9717H20.4544C20.4545 13.0375 20.5085 13.0909 20.5751 13.0909H20.9435C20.9755 13.0909 21.0062 13.0783 21.0288 13.0559C21.0514 13.0335 21.0642 13.0032 21.0642 12.9716V12.9715H21.0649L21.0647 12.0894C22.0921 12.0307 22.8113 11.7748 22.9002 10.8219C22.9718 10.0548 22.6062 9.71255 22.0229 9.5746ZM19.9782 8.22712C20.3232 8.22693 21.4069 8.11818 21.4073 8.82927C21.4074 9.51116 20.3236 9.43198 19.9786 9.43218L19.9782 8.22712ZM19.9793 11.369L19.979 10.0402C20.3932 10.0402 21.6921 9.92213 21.6924 10.7037C21.693 11.4532 20.3935 11.3683 19.9793 11.369Z" fill="#5C5C5C"/>
</svg>
