<svg width="44" height="44" viewBox="0 0 44 44" fill="none" xmlns="http://www.w3.org/2000/svg">
<path d="M38.6912 23.3791C37.2888 22.9044 35.8013 23.3576 34.9017 24.5338L30.7556 29.9557C30.7563 29.9262 30.7578 29.8969 30.7578 29.8672C30.7578 27.821 29.0931 26.1563 27.0469 26.1563H19.6821C17.334 24.1587 14.0155 23.8032 11.3125 25.2023V25.043C11.3125 24.4282 10.814 23.9297 10.1992 23.9297H4.11328C3.49845 23.9297 3 24.4282 3 25.043V39.8867C3 40.5016 3.49845 41 4.11328 41H10.1992C10.814 41 11.3125 40.5016 11.3125 39.8867V38.7735H29.5602C32.2244 38.7735 34.6749 37.4356 36.1155 35.1945L40.4601 28.4362C40.8133 27.8869 40.9999 27.2514 40.9999 26.5982C41 25.1176 40.0937 23.8539 38.6912 23.3791ZM9.08594 38.7735H5.22656V26.1563H9.08594V38.7735ZM38.5872 27.2321L34.2425 33.9906C33.2136 35.5912 31.4632 36.5469 29.5602 36.5469H11.3125V27.8424L11.6849 27.5765C13.7734 26.0846 16.6321 26.293 18.4823 28.0721C18.6897 28.2715 18.9662 28.3829 19.2539 28.3829H27.0469C27.8654 28.3829 28.5312 29.0488 28.5312 29.8673C28.5312 30.6858 27.8654 31.3517 27.0469 31.3517H19.2539H19.1055C18.4906 31.3517 17.9922 31.8501 17.9922 32.4649C17.9922 33.0798 18.4906 33.5782 19.1055 33.5782H19.2539H27.0469H28.0377C29.7602 33.5782 31.4131 32.7614 32.4594 31.3931L36.6704 25.8865C37.1443 25.2669 37.7903 25.4251 37.9772 25.4883C38.164 25.5516 38.7734 25.8185 38.7734 26.5985C38.7734 26.8236 38.7091 27.0427 38.5872 27.2321Z" fill="white"/>
<path d="M25.043 21.5547C30.1585 21.5547 34.3203 17.3929 34.3203 12.2773C34.3203 7.16182 30.1585 3 25.043 3C19.9274 3 15.7656 7.16182 15.7656 12.2773C15.7656 17.3929 19.9274 21.5547 25.043 21.5547ZM25.043 5.22656C28.9308 5.22656 32.0938 8.38954 32.0938 12.2773C32.0938 16.1651 28.9308 19.3281 25.043 19.3281C21.1552 19.3281 17.9922 16.1651 17.9922 12.2773C17.9922 8.38954 21.1552 5.22656 25.043 5.22656Z" fill="white"/>
<path d="M26.9168 11.7023C27.3498 11.4844 27.6204 11.1004 27.5569 10.4612C27.4716 9.58745 26.7076 9.29491 25.7433 9.2119L25.7428 8.15577C25.7431 8.15239 25.7448 8.14948 25.7448 8.14598C25.7448 8.06541 25.6787 8.00023 25.5971 8.00012H25.1469C25.1078 8.00015 25.0703 8.01552 25.0426 8.04285C25.015 8.07017 24.9994 8.10723 24.9994 8.14586H24.996L24.9966 9.1803C24.8001 9.1803 24.5994 9.18415 24.4001 9.18823L24.3997 8.15869C24.4001 8.15426 24.4023 8.15041 24.4023 8.14586C24.4023 8.06529 24.3362 8.00012 24.2546 8H23.8044C23.7653 8.00003 23.7278 8.0154 23.7001 8.04273C23.6725 8.07006 23.6569 8.10711 23.6569 8.14574L23.6571 8.14609H23.6534L23.6536 9.21213C23.4919 9.2154 23.3331 9.21878 23.1781 9.21878L23.178 9.21493H22.1477V9.21645C22.1283 9.21643 22.1091 9.22019 22.0912 9.22752C22.0732 9.23484 22.0569 9.24559 22.0432 9.25913C22.0295 9.27268 22.0186 9.28877 22.0112 9.30647C22.0038 9.32417 22 9.34315 22 9.36231V9.85504C22 9.93561 22.0661 10.0009 22.1477 10.0009L22.1483 10.0008V10.003C22.1483 10.003 22.6999 9.99239 22.6907 10.0021C22.9932 10.0022 23.0918 10.1756 23.1205 10.3252L23.1211 11.706L23.1212 11.7112L23.1218 13.6452C23.1086 13.7392 23.0526 13.8893 22.8413 13.8896C22.8508 13.8979 22.2983 13.8895 22.2983 13.8895L22.2981 13.8902C22.2972 13.8902 22.2965 13.8896 22.2955 13.8896C22.2246 13.8896 22.1681 13.94 22.1539 14.0059L22.1478 14.0055L22.0118 14.6082L22.015 14.6088C22.0144 14.6141 22.0118 14.6188 22.0118 14.6244C22.0118 14.7018 22.0734 14.7637 22.1507 14.7685L22.1503 14.7707L23.1224 14.7704C23.3033 14.7704 23.4814 14.7733 23.6561 14.7743L23.6569 15.8543H23.6573C23.6573 15.9347 23.7234 16 23.805 16H24.2552C24.2944 15.9999 24.3319 15.9845 24.3595 15.9572C24.3872 15.9298 24.4027 15.8928 24.4027 15.8541H24.4029L24.4025 14.7874C24.6073 14.7915 24.8056 14.793 24.9992 14.7925L24.9994 15.8543H24.9998C24.9999 15.9347 25.0659 16 25.1474 16H25.5976C25.6367 15.9999 25.6742 15.9845 25.7019 15.9572C25.7295 15.9298 25.7451 15.8928 25.7451 15.8541V15.854H25.746L25.7458 14.7759C27.0015 14.7042 27.8804 14.3914 27.9891 13.2268C28.0767 12.2892 27.6298 11.8709 26.9168 11.7023ZM24.4178 10.0554C24.8394 10.0551 26.164 9.9222 26.1645 10.7913C26.1646 11.6247 24.8399 11.528 24.4183 11.5282L24.4178 10.0554ZM24.4191 13.8954L24.4188 12.2714C24.9251 12.2714 26.5126 12.127 26.5129 13.0823C26.5136 13.9983 24.9254 13.8946 24.4191 13.8954Z" fill="white"/>
</svg>
