<svg width="44" height="44" viewBox="0 0 44 44" fill="none" xmlns="http://www.w3.org/2000/svg">
<path d="M32.8003 10.4852L30.8705 12.9642C35.0301 16.2008 37.105 21.4409 36.2861 26.6409C35.6862 30.4566 33.6359 33.8102 30.5134 36.0847C27.3899 38.3579 23.5691 39.2819 19.7534 38.6789C11.8766 37.4387 6.47571 30.0216 7.71389 22.1442C8.31378 18.3281 10.3647 14.9742 13.4876 12.7004C16.2141 10.7155 19.4722 9.76223 22.7947 9.95132L20.0791 12.8003L22.0937 14.7228L26.3804 10.2224L26.3815 10.224L28.3019 8.20739L26.2888 6.28696L26.2878 6.28758L21.789 2L19.8671 4.01663L22.7985 6.80861C18.8137 6.62014 14.9107 7.77925 11.639 10.1615C7.83795 12.9291 5.3422 17.0111 4.61143 21.6566C3.10407 31.2443 9.67726 40.2734 19.265 41.7822C20.1916 41.9284 21.1179 42 22.0382 42C25.7312 42 29.3196 40.8392 32.362 38.6236C36.1634 35.8556 38.6588 31.7736 39.3895 27.1291C40.3864 20.8012 37.8613 14.4232 32.8003 10.4852Z" fill="white"/>
<path d="M25.717 24.165C26.5512 23.7433 27.0727 23.0002 26.9503 21.7632C26.7858 20.0722 25.3139 19.506 23.456 19.3454L23.4551 17.3015C23.4555 17.2949 23.4589 17.2893 23.4589 17.2825C23.4589 17.1266 23.3315 17.0005 23.1743 17.0002H22.3069C22.2315 17.0003 22.1593 17.03 22.106 17.0829C22.0527 17.1358 22.0228 17.2075 22.0228 17.2823H22.0162L22.0173 19.2842C21.6388 19.2842 21.252 19.2917 20.868 19.2996L20.8673 17.3071C20.868 17.2985 20.8723 17.2911 20.8723 17.2823C20.8723 17.1264 20.7449 17.0002 20.5877 17H19.7203C19.6449 17.0001 19.5727 17.0298 19.5194 17.0827C19.4661 17.1356 19.4362 17.2073 19.4362 17.2821L19.4364 17.2827H19.4294L19.4298 19.3458C19.1181 19.3521 18.8122 19.3587 18.5137 19.3587L18.5135 19.3512H16.5284V19.3542C16.491 19.3542 16.454 19.3614 16.4194 19.3756C16.3849 19.3898 16.3535 19.4106 16.3271 19.4368C16.3006 19.463 16.2797 19.4941 16.2654 19.5284C16.2511 19.5627 16.2437 19.5994 16.2438 19.6365V20.5901C16.2438 20.746 16.3712 20.8723 16.5284 20.8723L16.5295 20.8721V20.8764C16.5295 20.8764 17.5924 20.8559 17.5746 20.8746C18.1574 20.8748 18.3474 21.2104 18.4027 21.4999L18.4038 24.1722L18.404 24.1824L18.4052 27.9252C18.3797 28.107 18.2719 28.3975 17.8647 28.3981C17.8831 28.4142 16.8184 28.3979 16.8184 28.3979L16.8182 28.3993C16.8164 28.3993 16.815 28.3981 16.8132 28.3981C16.6765 28.3981 16.5677 28.4956 16.5402 28.6231L16.5286 28.6224L16.2665 29.7888L16.2727 29.7899C16.2715 29.8003 16.2665 29.8093 16.2665 29.8202C16.2665 29.97 16.3853 30.0898 16.5341 30.0991L16.5334 30.1034L18.4063 30.1027C18.7548 30.1027 19.0979 30.1083 19.4346 30.1103L19.4362 32.2003H19.4369C19.4369 32.356 19.5643 32.4824 19.7215 32.4824H20.5889C20.6643 32.4822 20.7366 32.4524 20.7898 32.3995C20.8431 32.3466 20.873 32.2749 20.873 32.2001H20.8735L20.8726 30.1356C21.2673 30.1435 21.6492 30.1465 22.0223 30.1455L22.0228 32.2003H22.0235C22.0237 32.356 22.1509 32.4824 22.3078 32.4824H23.1753C23.2506 32.4822 23.3229 32.4524 23.3762 32.3995C23.4295 32.3466 23.4594 32.2749 23.4594 32.2001V32.1998H23.4612L23.4608 30.1133C25.8801 29.9745 27.5736 29.3693 27.7829 27.1153C27.9517 25.3009 27.0906 24.4913 25.717 24.165ZM20.9021 20.9777C21.7145 20.9773 24.2665 20.72 24.2674 22.402C24.2677 24.0149 21.7154 23.8276 20.9031 23.8281L20.9021 20.9777ZM20.9046 28.4094L20.904 25.2664C21.8795 25.2664 24.9381 24.987 24.9388 26.8357C24.9401 28.6084 21.8801 28.4078 20.9046 28.4094Z" fill="white"/>
</svg>
