<svg width="36" height="36" viewBox="0 0 36 36" fill="none" xmlns="http://www.w3.org/2000/svg">
<path d="M26.8366 7.57875L25.2577 9.60705C28.661 12.2552 30.3586 16.5425 29.6886 20.7971C29.1978 23.919 27.5203 26.6629 24.9655 28.5238C22.4099 30.3838 19.2838 31.1397 16.1619 30.6464C9.7172 29.6317 5.29831 23.5631 6.31136 17.118C6.80218 13.9957 8.48019 11.2516 11.0353 9.3912C13.2661 7.76724 15.9318 6.98727 18.6502 7.14198L16.4284 9.47295L18.0767 11.0459L21.584 7.36375L21.5849 7.3651L23.1561 5.71513L21.509 4.14387L21.5082 4.14437L17.8274 0.636353L16.2549 2.28632L18.6533 4.57067C15.393 4.41647 12.1997 5.36483 9.5228 7.31392C6.41287 9.57834 4.37089 12.9181 3.77299 16.719C2.53969 24.5635 7.91776 31.951 15.7622 33.1854C16.5204 33.305 17.2783 33.3636 18.0312 33.3636C21.0528 33.3636 23.9888 32.4139 26.478 30.6011C29.5883 28.3364 31.6299 24.9966 32.2278 21.1965C33.0434 16.0191 30.9775 10.8008 26.8366 7.57875Z" fill="#5C5C5C"/>
<path fill-rule="evenodd" clip-rule="evenodd" d="M19.0723 16.91V18.2618V18.2627C21.5558 18.3781 23.4231 18.8746 23.4231 19.4685C23.4231 20.0624 21.5558 20.5589 19.0723 20.6743V25H16.8589V20.6788C14.3718 20.5625 12.5 20.066 12.5 19.4712C12.5 18.8764 14.3709 18.3799 16.8589 18.2645V16.9127H13.7976V14.8571H22.1335V16.91H19.0723ZM18.9873 20.3124C19.0302 20.3105 19.058 20.3093 19.0723 20.3093V20.3075C21.266 20.2093 22.9035 19.8227 22.9035 19.3631C22.9035 18.9035 21.266 18.5168 19.0723 18.4186V19.9245C19.0088 19.9299 18.6654 19.9587 17.983 19.9587C17.4142 19.9587 17.0028 19.9344 16.8589 19.9245V18.4186C14.6607 18.5168 13.0196 18.9026 13.0196 19.364C13.0196 19.8254 14.6607 20.2111 16.8589 20.3093C17.2304 20.326 17.6022 20.3338 17.9741 20.3327C18.5254 20.3327 18.8425 20.3188 18.9873 20.3124Z" fill="#5C5C5C"/>
</svg>
