<svg width="36" height="36" viewBox="0 0 36 36" fill="none" xmlns="http://www.w3.org/2000/svg">
<path d="M26.8366 8.57875L25.2577 10.6071C28.661 13.2552 30.3586 17.5425 29.6886 21.7971C29.1978 24.919 27.5203 27.6629 24.9655 29.5238C22.4099 31.3838 19.2838 32.1397 16.1619 31.6464C9.7172 30.6317 5.29831 24.5631 6.31136 18.118C6.80218 14.9957 8.48019 12.2516 11.0353 10.3912C13.2661 8.76724 15.9318 7.98727 18.6502 8.14198L16.4284 10.4729L18.0767 12.0459L21.584 8.36375L21.5849 8.3651L23.1561 6.71513L21.509 5.14387L21.5082 5.14437L17.8274 1.63635L16.2549 3.28632L18.6533 5.57067C15.393 5.41647 12.1997 6.36483 9.5228 8.31392C6.41287 10.5783 4.37089 13.9181 3.77299 17.719C2.53969 25.5635 7.91776 32.951 15.7622 34.1854C16.5204 34.305 17.2783 34.3636 18.0312 34.3636C21.0528 34.3636 23.9888 33.4139 26.478 31.6011C29.5883 29.3364 31.6299 25.9966 32.2278 22.1965C33.0434 17.0191 30.9775 11.8008 26.8366 8.57875Z" fill="#5C5C5C"/>
<path d="M21.0412 19.7714C21.7238 19.4263 22.1504 18.8184 22.0503 17.8063C21.9157 16.4227 20.7114 15.9595 19.1913 15.8281L19.1906 14.1558C19.1909 14.1504 19.1937 14.1458 19.1937 14.1403C19.1937 14.0127 19.0895 13.9095 18.9609 13.9093H18.2512C18.1895 13.9094 18.1303 13.9337 18.0868 13.977C18.0432 14.0202 18.0187 14.0789 18.0187 14.1401H18.0133L18.0142 15.778C17.7045 15.778 17.3881 15.7841 17.0739 15.7906L17.0733 14.1604C17.0739 14.1534 17.0774 14.1473 17.0774 14.1401C17.0774 14.0125 16.9732 13.9093 16.8446 13.9091H16.1349C16.0732 13.9092 16.014 13.9335 15.9705 13.9768C15.9269 14.0201 15.9024 14.0787 15.9024 14.1399L15.9026 14.1404H15.8968L15.8972 15.8284C15.6422 15.8336 15.3918 15.839 15.1476 15.839L15.1474 15.8329H13.5233V15.8353C13.4927 15.8352 13.4624 15.8412 13.4341 15.8528C13.4059 15.8644 13.3802 15.8814 13.3586 15.9029C13.3369 15.9243 13.3198 15.9498 13.3081 15.9778C13.2964 16.0058 13.2904 16.0359 13.2904 16.0662V16.8464C13.2904 16.974 13.3946 17.0774 13.5233 17.0774L13.5242 17.0772V17.0807C13.5242 17.0807 14.3938 17.0639 14.3793 17.0792C14.8561 17.0794 15.0116 17.354 15.0568 17.5908L15.0577 19.7773L15.0579 19.7856L15.0588 22.8479C15.038 22.9967 14.9498 23.2343 14.6166 23.2349C14.6317 23.248 13.7606 23.2347 13.7606 23.2347L13.7604 23.2358C13.7589 23.2358 13.7578 23.2349 13.7563 23.2349C13.6444 23.2349 13.5555 23.3146 13.5329 23.4189L13.5234 23.4184L13.309 24.3727L13.314 24.3736C13.3131 24.3821 13.309 24.3895 13.309 24.3983C13.309 24.5209 13.4062 24.619 13.5279 24.6265L13.5273 24.63L15.0598 24.6295C15.3449 24.6295 15.6256 24.6341 15.9011 24.6358L15.9024 26.3457H15.9029C15.9029 26.4731 16.0072 26.5765 16.1358 26.5765H16.8455C16.9072 26.5764 16.9663 26.552 17.0099 26.5087C17.0535 26.4654 17.078 26.4067 17.078 26.3455H17.0783L17.0776 24.6564C17.4005 24.6629 17.713 24.6653 18.0183 24.6646L18.0187 26.3457H18.0192C18.0194 26.4731 18.1235 26.5765 18.2519 26.5765H18.9616C19.0233 26.5764 19.0824 26.552 19.126 26.5087C19.1696 26.4654 19.1941 26.4067 19.1941 26.3455V26.3454H19.1956L19.1952 24.6382C21.1747 24.5246 22.5603 24.0295 22.7315 22.1853C22.8696 20.7008 22.1651 20.0383 21.0412 19.7714ZM17.1018 17.1636C17.7665 17.1632 19.8545 16.9528 19.8552 18.3289C19.8554 19.6486 17.7672 19.4954 17.1025 19.4957L17.1018 17.1636ZM17.1038 23.2441L17.1033 20.6725C17.9014 20.6725 20.4039 20.444 20.4045 21.9566C20.4056 23.4069 17.902 23.2428 17.1038 23.2441Z" fill="#5C5C5C"/>
</svg>
