<svg width="44" height="44" viewBox="0 0 44 44" fill="none" xmlns="http://www.w3.org/2000/svg">
<path d="M4 4V40H10.0985L10.671 37.8818H33.329L33.9015 40H40V4H4ZM8.23633 29.418H6.10938V26.8428H8.23633V29.418ZM8.23633 24.7334H6.10938V17.4736H8.23633V24.7334ZM8.23633 15.3643H6.10938V12.7891H8.23633V15.3643ZM37.8906 37.8906H35.5165L34.944 35.7725H9.05603L8.48355 37.8906H6.10938V31.5273H8.23633V33.6455H35.7637V8.23633H8.23633V10.6797H6.10938V6.10938H37.8906V37.8906ZM10.3457 31.5361V10.3457H33.6543V31.5361H10.3457Z" fill="white"/>
<path d="M22 13.2365C17.7207 13.2365 14.2393 16.7179 14.2393 20.9972C14.2393 25.2765 17.7207 28.7579 22 28.7579C26.2793 28.7579 29.7607 25.2765 29.7607 20.9972C29.7607 16.7179 26.2793 13.2365 22 13.2365ZM22 19.5997C22.7706 19.5997 23.3975 20.2266 23.3975 20.9972C23.3975 21.7677 22.7706 22.3947 22 22.3947C21.2294 22.3947 20.6025 21.7677 20.6025 20.9972C20.6025 20.2266 21.2294 19.5997 22 19.5997ZM22 26.6486C18.8838 26.6486 16.3486 24.1134 16.3486 20.9972C16.3486 18.2415 18.3317 15.9416 20.9453 15.446V17.6527C19.5255 18.1014 18.4932 19.4309 18.4932 20.9972C18.4932 22.9309 20.0663 24.504 22 24.504C23.9337 24.504 25.5068 22.9309 25.5068 20.9972C25.5068 19.4309 24.4745 18.1014 23.0547 17.6527V15.446C25.6683 15.9416 27.6514 18.2415 27.6514 20.9972C27.6514 24.1134 25.1162 26.6486 22 26.6486Z" fill="white"/>
<path d="M12.4902 27.422H14.5996V29.5196H12.4902V27.422Z" fill="white"/>
<path d="M29.4004 27.422H31.5098V29.5196H29.4004V27.422Z" fill="white"/>
</svg>
