<svg width="36" height="36" viewBox="0 0 36 36" fill="none" xmlns="http://www.w3.org/2000/svg">
<path d="M4.90912 4.90912V31.0909H9.34438L9.76073 29.5505H26.2393L26.6557 31.0909H31.0909V4.90912H4.90912ZM7.99008 23.3949H6.44321V21.522H7.99008V23.3949ZM7.99008 19.988H6.44321V14.7081H7.99008V19.988ZM7.99008 13.174H6.44321V11.3012H7.99008V13.174ZM29.5568 29.5568H27.8302L27.4138 28.0164H8.58623L8.16988 29.5568H6.44321V24.929H7.99008V26.4695H28.01V7.99008H7.99008V9.76707H6.44321V6.44321H29.5568V29.5568ZM9.52418 24.9354V9.52418H26.4759V24.9354H9.52418Z" fill="#5C5C5C"/>
<path d="M18 11.6265C14.8878 11.6265 12.3558 14.1585 12.3558 17.2707C12.3558 20.3829 14.8878 22.9149 18 22.9149C21.1122 22.9149 23.6442 20.3829 23.6442 17.2707C23.6442 14.1585 21.1122 11.6265 18 11.6265ZM18 16.2544C18.5604 16.2544 19.0163 16.7103 19.0163 17.2707C19.0163 17.8311 18.5604 18.287 18 18.287C17.4396 18.287 16.9837 17.8311 16.9837 17.2707C16.9837 16.7103 17.4396 16.2544 18 16.2544ZM18 21.3808C15.7337 21.3808 13.8899 19.537 13.8899 17.2707C13.8899 15.2666 15.3321 13.5939 17.233 13.2335V14.8383C16.2004 15.1647 15.4496 16.1316 15.4496 17.2707C15.4496 18.677 16.5937 19.8211 18 19.8211C19.4063 19.8211 20.5504 18.677 20.5504 17.2707C20.5504 16.1316 19.7997 15.1647 18.7671 14.8383V13.2335C20.6679 13.5939 22.1101 15.2666 22.1101 17.2707C22.1101 19.537 20.2663 21.3808 18 21.3808Z" fill="#5C5C5C"/>
<path d="M11.0839 21.9433H12.618V23.4689H11.0839V21.9433Z" fill="#5C5C5C"/>
<path d="M23.3821 21.9433H24.9162V23.4689H23.3821V21.9433Z" fill="#5C5C5C"/>
</svg>
